<svg width="18" height="18" viewBox="0 0 18 18" fill="none" xmlns="http://www.w3.org/2000/svg">
<rect width="18" height="18" rx="4" fill="#08CCC8" fill-opacity="0.15"/>
<path fill-rule="evenodd" clip-rule="evenodd" d="M4 6C4 4.89543 4.89543 4 6 4H12C13.1046 4 14 4.89543 14 6V12C14 13.1046 13.1046 14 12 14H6C4.89543 14 4 13.1046 4 12V6ZM7.85355 7.14645C8.04882 7.34171 8.04882 7.65829 7.85355 7.85355L6.70711 9L7.85355 10.1464C8.04882 10.3417 8.04882 10.6583 7.85355 10.8536C7.65829 11.0488 7.34171 11.0488 7.14645 10.8536L5.64645 9.35355C5.45118 9.15829 5.45118 8.84171 5.64645 8.64645L7.14645 7.14645C7.34171 6.95118 7.65829 6.95118 7.85355 7.14645ZM10.8536 7.14645C10.6583 6.95118 10.3417 6.95118 10.1464 7.14645C9.95118 7.34171 9.95118 7.65829 10.1464 7.85355L11.2929 9L10.1464 10.1464C9.95118 10.3417 9.95118 10.6583 10.1464 10.8536C10.3417 11.0488 10.6583 11.0488 10.8536 10.8536L12.3536 9.35355C12.5488 9.15829 12.5488 8.84171 12.3536 8.64645L10.8536 7.14645Z" fill="#08CCC8"/>
</svg>
