<svg width="18" height="18" viewBox="0 0 18 18" fill="none" xmlns="http://www.w3.org/2000/svg">
<rect width="18" height="18" rx="4" fill="#08C234" fill-opacity="0.15"/>
<path d="M14 7.00006C14 8.65691 12.6568 10.0001 11 10.0001C10.4933 10.0001 10.016 9.87444 9.5974 9.65266L5.78033 13.4697C5.48744 13.7626 5.01256 13.7626 4.71967 13.4697L4.53033 13.2804C4.23744 12.9875 4.23744 12.5126 4.53033 12.2197L8.3474 8.40266C8.12562 7.98409 8 7.50674 8 7.00006C8 5.34321 9.34315 4.00006 11 4.00006C11.5067 4.00006 11.984 4.12567 12.4026 4.34746L10.5 6.25006L11.75 7.50006L13.6526 5.59746C13.8744 6.01604 14 6.49339 14 7.00006Z" fill="#08C234" stroke="#08C234" stroke-width="0.685714" stroke-linecap="round" stroke-linejoin="round"/>
</svg>
