<svg width="14" height="14" viewBox="0 0 14 14" fill="none" xmlns="http://www.w3.org/2000/svg">
<path d="M12 5.00006C12 6.65691 10.6568 8.00006 9 8.00006C8.49332 8.00006 8.01597 7.87444 7.5974 7.65266L3.78033 11.4697C3.48744 11.7626 3.01256 11.7626 2.71967 11.4697L2.53033 11.2804C2.23744 10.9875 2.23744 10.5126 2.53033 10.2197L6.3474 6.40266C6.12562 5.98409 6 5.50674 6 5.00006C6 3.34321 7.34315 2.00006 9 2.00006C9.50667 2.00006 9.98403 2.12567 10.4026 2.34746L8.5 4.25006L9.75 5.50006L11.6526 3.59746C11.8744 4.01604 12 4.49339 12 5.00006Z" fill="#565759" stroke="#565759" stroke-width="0.685714" stroke-linecap="round" stroke-linejoin="round"/>
</svg>
