<svg width="18" height="18" viewBox="0 0 18 18" fill="none" xmlns="http://www.w3.org/2000/svg">
<rect width="18" height="18" rx="4" fill="#F7B919" fill-opacity="0.15"/>
<g clip-path="url(#clip0_2636_13293)">
<path fill-rule="evenodd" clip-rule="evenodd" d="M9.00003 4.91669C7.18612 4.91669 5.59616 5.89478 4.50298 6.80091C3.94811 7.26084 3.50052 7.71943 3.19143 8.06301C3.03655 8.23518 2.91555 8.37946 2.83235 8.48194C2.79073 8.5332 2.7585 8.57408 2.73616 8.60284L2.71009 8.63671L2.70272 8.64644L2.70047 8.64944L2.69941 8.65085C2.54499 8.85779 2.54528 9.14264 2.6997 9.34958L2.70047 9.3506L2.70272 9.3536L2.71009 9.36333L2.73616 9.3972C2.7585 9.42596 2.79073 9.46684 2.83235 9.5181C2.91555 9.62058 3.03655 9.76486 3.19143 9.93703C3.50052 10.2806 3.94811 10.7392 4.50298 11.1991C5.59616 12.1053 7.18612 13.0834 9.00003 13.0834C10.8139 13.0834 12.4039 12.1053 13.4971 11.1991C14.0519 10.7392 14.4995 10.2806 14.8086 9.93703C14.9635 9.76486 15.0845 9.62058 15.1677 9.5181C15.2093 9.46684 15.2416 9.42596 15.2639 9.3972L15.29 9.36333L15.2973 9.3536L15.2996 9.3506L15.3006 9.34919C15.4551 9.14225 15.4548 8.8574 15.3004 8.65046L15.2996 8.64944L15.2973 8.64644L15.29 8.63671L15.2639 8.60284C15.2416 8.57408 15.2093 8.5332 15.1677 8.48194C15.0845 8.37946 14.9635 8.23518 14.8086 8.06301C14.4995 7.71943 14.0519 7.26084 13.4971 6.80091C12.4039 5.89478 10.8139 4.91669 9.00003 4.91669ZM9.04167 7C7.91409 7 7 7.91409 7 9.04167C7 10.1692 7.91409 11.0833 9.04167 11.0833C10.1692 11.0833 11.0833 10.1692 11.0833 9.04167C11.0833 7.91409 10.1692 7 9.04167 7Z" fill="#F7BA1E"/>
</g>
<defs>
<clipPath id="clip0_2636_13293">
<rect width="14" height="14" fill="white" transform="translate(2 2)"/>
</clipPath>
</defs>
</svg>
